<?xml version="1.0" encoding="UTF-8"?>
<svg id="Camada_2" data-name="Camada 2" xmlns="http://www.w3.org/2000/svg" viewBox="0 0 499.12 499.12">
  <defs>
    <style>
      .cls-1 {
        fill: #3348ff;
      }
    </style>
  </defs>
  <g id="Camada_29" data-name="Camada 29">
    <g>
      <path class="cls-1" d="M436.28,0H62.84C28.14,0,0,28.14,0,62.84V436.28c0,29.88,20.87,54.84,48.82,61.22,5.37-16.98,11.77-33.61,18.27-50.22,5.36-13.6,10.98-27.08,16.48-40.65,.09-.21,.15-.42,.24-.65,.65-1.73,1.38-3.43-.47-3.55,0,0-3.04-.26-3.07-.26-5.83-.39-10.42-1.16-15.98-3.06-22.17-7.56-32.97-27.82-26.93-50.49,3.45-12.97,10.33-24.1,18.72-34.31,22.44-27.26,50.85-46.3,83.46-59.51,2.86-1.16,5.77-2.08,8.69-3.06,2.38-.83,4.32-2.56,5.39-4.82,7.94-16.4,15.77-32.85,24.1-49.04,13.18-25.71,27.34-50.85,43.83-74.63,8.63-12.44,17.94-24.37,28.89-34.9,6.28-6.04,13.09-11.37,20.95-15.26,10.36-5.18,21.13-6.96,32.4-3.39,9.11,2.89,16.04,8.66,21.6,16.25,6.64,9.05,10.47,19.37,13.27,30.11,3.51,13.48,5.48,27.29,6.9,41.15l3.39,57.9q.45,9.52,.6,11.34c1.81-1.25,3.03-2.02,4.22-2.89,45.62-32.7,91.23-65.46,136.87-98.16,2.82-2.02,5.65-4.03,8.47-6.05V62.84c0-34.71-28.14-62.84-62.84-62.84Z"/>
      <path class="cls-1" d="M306.2,255.29s-4.28-151.57-15.77-143c-37.22,23.83-87.3,129.61-87.3,129.61,54.63-1.61,87.84,23.3,87.84,23.3l15.23-9.91Z"/>
      <path class="cls-1" d="M181.98,286.86l-23.83,53.29s61.59-25.02,91.71-47.52c3.9-2.83-48.47-13.12-67.87-5.77Z"/>
      <path class="cls-1" d="M124.82,310.58c-14.88,4.08-49.69,46.45-45.79,48.05,8.57,2.68,25.29-1.07,25.29-1.07l20.5-46.98Z"/>
      <path class="cls-1" d="M349.68,278.47c-.03,15.98-.15,35.77-.57,51.74-.45,17.2-1.25,34.43-2.11,51.63-.21,4.28-.83,8.69-1.99,12.79-2.83,9.97-11.34,16.07-21.28,15.86-9.73-.21-18.33-6.93-20.47-16.93-1.34-6.37-1.64-13-2.26-19.52-1.16-12.26-2.77-24.4-7.02-36.03-1.75-4.73-4.05-9.28-6.19-13.9-.86-1.87-3.15-2.56-4.94-1.49-.39,.24-.77,.45-1.13,.68-29.13,18-58.77,35.05-89.92,49.33-17.23,7.91-34.84,14.91-53.05,20.32-2.02,.62-3.39,1.49-4.29,3.6-14.22,33.93-28.47,67.84-40.73,102.55H436.28c34.71,0,62.84-28.14,62.84-62.84V172.34c-40.11,28.75-80.19,57.55-120.32,86.28-8.66,6.22-20.29,13.87-29.13,19.85Zm74.81,73.96c6.5,6.35,9.8,13.99,9.9,22.92-.1,6.05-1.66,11.56-4.69,16.52-3.03,4.96-7,8.91-11.91,11.83s-10.3,4.39-16.15,4.39c-9.03,0-16.77-3.18-23.22-9.53-6.45-6.35-9.63-14.09-9.53-23.22-.1-8.93,3.07-16.57,9.53-22.92,6.45-6.35,14.19-9.53,23.22-9.53s16.35,3.18,22.85,9.53Z"/>
    </g>
  </g>
</svg>